<svg xmlns="http://www.w3.org/2000/svg" viewBox="0 0 64 64" role="img" aria-label="Cute birthday cat favicon">
  <rect width="64" height="64" rx="16" fill="#fff8e8"/>
  <circle cx="13" cy="13" r="5" fill="#ffd3bf"/>
  <circle cx="52" cy="13" r="6" fill="#c9ebff"/>
  <circle cx="51" cy="52" r="6" fill="#ddd1ff"/>

  <path d="M18 35 24 20 31 35Z" fill="#fffdf8" stroke="#72566a" stroke-width="2.8" stroke-linejoin="round"/>
  <path d="M33 35 40 20 46 35Z" fill="#fffdf8" stroke="#72566a" stroke-width="2.8" stroke-linejoin="round"/>
  <path d="M23 32 25 25 29 33Z" fill="#ffb3c7"/>
  <path d="M35 33 39 25 41 32Z" fill="#ffb3c7"/>

  <ellipse cx="32" cy="40" rx="19" ry="14.5" fill="#fffdf8" stroke="#72566a" stroke-width="2.8"/>
  <path d="M20 37c3 4 9 4 12 0M32 37c3 4 9 4 12 0" fill="none" stroke="#5f4a59" stroke-width="2.6" stroke-linecap="round"/>
  <path d="m29 42 6 0-3 4z" fill="#e8849c"/>
  <path d="M32 47c-3 3-7 3-10 0M32 47c3 3 7 3 10 0" fill="none" stroke="#5f4a59" stroke-width="2.5" stroke-linecap="round"/>
  <path d="M19 43h-7M45 43h7" fill="none" stroke="#5f4a59" stroke-width="2.3" stroke-linecap="round"/>
  <path d="M16 47h7M41 47h7" fill="none" stroke="#ff9fbd" stroke-width="2.8" stroke-linecap="round"/>

  <path d="M51 20 53 26l6 2-6 2-2 6-2-6-6-2 6-2Z" fill="#ffcf69"/>
</svg>
